<?xml version="1.0" standalone="no"?>
<!DOCTYPE svg PUBLIC "-//W3C//DTD SVG 20010904//EN"
 "http://www.w3.org/TR/2001/REC-SVG-20010904/DTD/svg10.dtd">
<svg version="1.0" xmlns="http://www.w3.org/2000/svg"
 width="1280.000000pt" height="890.000000pt" viewBox="0 0 1280.000000 890.000000"
 preserveAspectRatio="xMidYMid meet">
<metadata>
Created by potrace 1.15, written by Peter Selinger 2001-2017
</metadata>
<g transform="translate(0.000000,890.000000) scale(0.100000,-0.100000)"
fill="#000000" stroke="none">
<path d="M5660 8893 c-210 -20 -270 -27 -370 -44 -476 -81 -937 -259 -1410
-545 -123 -75 -259 -164 -249 -164 3 0 59 25 124 56 767 361 1571 546 2201
505 473 -30 848 -133 1287 -352 402 -201 733 -434 1502 -1059 231 -188 492
-396 580 -462 88 -67 163 -124 167 -128 5 -3 -123 -132 -283 -285 -160 -154
-287 -280 -282 -282 9 -2 435 -37 653 -53 80 -6 204 -15 275 -21 480 -36 665
-49 773 -55 l122 -7 0 24 c1 72 -72 1550 -78 1582 l-7 38 -293 -246 -292 -246
-333 207 c-750 468 -1205 728 -1662 950 -737 357 -1347 539 -1960 584 -130 9
-384 11 -465 3z"/>
<path d="M1570 7354 c-707 -542 -1300 -999 -1318 -1017 -42 -40 -58 -97 -44
-156 9 -42 8 -47 -21 -83 -43 -54 -50 -137 -15 -188 51 -76 154 -91 242 -34
148 95 400 283 1051 785 1084 835 1251 963 1277 976 15 8 46 13 69 11 l42 -3
-939 -811 -939 -811 -63 -584 c-35 -321 -88 -810 -118 -1087 -30 -277 -54
-509 -54 -517 0 -10 68 -12 377 -10 208 2 360 1 339 -3 -36 -6 -40 -11 -59
-60 -33 -88 -40 -86 311 -93 163 -4 795 -8 1404 -10 l1106 -4 29 21 c32 24 39
57 22 100 -7 16 -12 32 -11 37 1 4 -5 7 -14 7 -8 0 -12 4 -9 10 3 5 35 10 71
10 35 0 64 4 64 10 0 5 139 10 358 10 196 1 363 2 370 3 17 1 16 8 -28 300
-21 144 -91 609 -155 1032 -63 424 -118 785 -122 804 -5 28 -40 62 -247 239
-826 706 -1056 904 -1056 908 0 2 93 -74 208 -169 114 -95 283 -234 377 -308
93 -74 276 -219 405 -322 129 -104 270 -210 313 -235 43 -26 127 -82 188 -124
120 -84 168 -100 233 -78 44 14 93 69 101 114 8 42 -2 96 -18 96 -6 0 5 14 26
31 49 40 67 77 67 137 0 35 -7 59 -23 83 -22 33 -2481 1967 -2502 1969 -6 0
-589 -444 -1295 -986z m1890 -179 c13 -14 21 -25 18 -25 -2 0 -15 11 -28 25
-13 14 -21 25 -18 25 2 0 15 -11 28 -25z"/>
<path d="M9948 6033 c12 -2 30 -2 40 0 9 3 -1 5 -23 4 -22 0 -30 -2 -17 -4z"/>
<path d="M10075 6021 l40 -8 -32 -8 c-39 -9 -61 -31 -46 -46 11 -11 118 -39
168 -44 17 -1 65 -8 108 -14 190 -27 229 -31 248 -21 20 11 21 15 23 73 1 46
11 43 -199 57 -245 16 -356 20 -310 11z"/>
<path d="M11207 5483 c-10 -38 -27 -98 -37 -134 l-20 -66 -77 14 c-124 22
-340 43 -443 43 -498 0 -908 -223 -1118 -610 -81 -148 -152 -419 -152 -577 0
-27 -5 -54 -11 -60 -8 -8 -12 -61 -12 -155 -1 -118 3 -159 22 -233 53 -204
153 -378 299 -516 123 -117 198 -169 636 -442 54 -34 105 -74 114 -88 14 -25
10 -44 -78 -365 -51 -187 -96 -345 -100 -353 -6 -11 -22 -1 -70 45 -72 67
-139 166 -163 238 -20 59 -38 234 -35 335 l3 75 -590 87 c-421 61 -592 83
-597 75 -4 -6 -8 -71 -8 -144 0 -88 -3 -131 -10 -127 -19 12 -40 -62 -40 -142
0 -387 163 -743 464 -1011 93 -83 238 -179 355 -236 l94 -46 -98 -45 c-125
-58 -338 -146 -480 -197 -959 -348 -1784 -384 -2555 -110 -504 178 -959 464
-1705 1068 -462 374 -627 507 -792 635 l-161 126 72 72 c66 66 106 94 75 54
-7 -10 13 6 44 36 31 30 54 58 52 62 -3 4 72 82 166 173 95 91 168 166 162
166 -8 0 -557 40 -1521 111 -161 12 -295 19 -299 16 -6 -6 7 -389 27 -782 5
-99 14 -295 20 -435 7 -140 15 -295 18 -343 l7 -88 133 111 c72 61 132 108
132 106 0 -3 -53 -49 -118 -104 -143 -120 -149 -128 -123 -135 25 -6 24 -7
226 167 212 183 247 201 333 177 18 -6 157 -93 310 -194 478 -318 768 -499
1127 -704 889 -509 1644 -786 2360 -865 180 -20 606 -17 780 6 369 47 705 142
1030 291 86 40 196 103 207 119 23 34 -9 28 -285 -55 -808 -242 -1451 -281
-2065 -125 -113 29 -454 134 -462 143 -5 6 -3 5 105 -26 410 -118 929 -179
1312 -152 678 46 1231 239 1915 665 55 34 81 46 90 39 7 -5 59 -29 114 -52 93
-39 117 -54 151 -95 13 -15 8 -38 -32 -181 -8 -27 -16 -61 -19 -75 -2 -14 -11
-50 -20 -79 -39 -131 -16 -162 154 -209 140 -39 182 -41 215 -8 24 24 69 151
59 167 -3 5 -1 9 5 9 5 0 17 26 26 57 52 186 53 190 86 203 26 11 56 10 198
-11 383 -54 687 -16 984 125 175 83 383 253 498 406 80 106 174 302 184 385 3
16 16 58 30 93 88 216 110 510 56 723 -25 97 -99 258 -161 350 -125 186 -443
436 -885 694 -82 48 -151 88 -153 89 -3 4 136 507 147 531 5 11 10 14 10 8 1
-7 13 -13 28 -13 36 0 109 -77 146 -154 16 -32 39 -101 52 -153 28 -111 43
-137 88 -152 18 -6 232 -33 476 -60 478 -53 503 -53 521 -5 13 32 13 90 1 132
l-10 33 55 -6 54 -7 0 53 c0 91 -19 229 -45 327 -115 434 -449 738 -1039 947
-45 17 -75 33 -73 39 20 52 66 251 60 257 -6 5 -389 109 -405 109 -2 0 -11
-30 -21 -67z m-347 -1138 c11 -13 15 -13 22 -3 12 17 12 18 -57 -244 l-58
-217 -43 30 c-65 44 -137 121 -163 174 -14 28 -25 72 -28 109 l-5 61 59 37
c32 20 78 43 103 52 61 20 154 21 170 1z m-6780 -1558 c0 -2 -19 -21 -42 -42
l-43 -40 40 43 c36 39 45 47 45 39z m6802 -406 c28 -2 164 -118 212 -181 24
-33 52 -83 61 -112 9 -29 20 -60 25 -70 7 -12 1 -27 -19 -55 -61 -85 -169
-145 -299 -169 -86 -15 -212 -18 -212 -5 0 4 36 140 80 300 44 161 80 294 80
295 0 1 12 1 28 0 15 -1 35 -3 44 -3z m-7582 -302 l25 -21 -27 16 c-15 9 -32
16 -39 16 -6 0 -39 -23 -73 -51 l-61 -51 60 56 c33 30 67 56 75 56 8 0 26 -10
40 -21z m70 -45 c0 -2 -9 0 -20 6 -11 6 -20 13 -20 16 0 2 9 0 20 -6 11 -6 20
-13 20 -16z m-250 -48 c0 -3 -42 -39 -92 -82 -51 -42 -84 -68 -73 -56 19 20
157 140 163 141 1 1 2 -1 2 -3z"/>
<path d="M3860 2570 c0 -5 5 -10 11 -10 5 0 7 5 4 10 -3 6 -8 10 -11 10 -2 0
-4 -4 -4 -10z"/>
</g>
</svg>
